<svg xmlns="http://www.w3.org/2000/svg" viewBox="0 0 344 383.24"><defs><style>.cls-1{fill:#f07167;}</style></defs><g id="Layer_2" data-name="Layer 2"><g id="Layer_1-2" data-name="Layer 1"><path class="cls-1" d="M217.66,0c7.77,1.64,15.59,2.9,23.05,5.89,33.71,13.53,54.9,47.34,52.23,83.17a83.4,83.4,0,0,1-68.38,75.76c-46.81,8.08-90.74-23.66-97.31-70.48C120.86,48.85,153.8,6.13,199.47.68A16.77,16.77,0,0,0,201.94,0Zm-7.79,23a60.08,60.08,0,1,0,60.28,60A60.14,60.14,0,0,0,209.87,23Z"/><path class="cls-1" d="M239.26,337.45h-8.43c-16.72,0-33.44.05-50.15,0-2.69,0-3.57.22-2.83,3.39A34.19,34.19,0,0,1,152,382.41a34.61,34.61,0,0,1-41.73-27.36,29.33,29.33,0,0,1,.5-14.45c1-3.07-.2-3.21-2.67-3.18-8.73.09-17.47.19-26.2,0a26.67,26.67,0,0,1-25.18-34.36,26,26,0,0,1,9.64-13.43C76,282.26,85.5,274.8,95.16,267.53c2-1.48,2.57-2.78,2-5.24Q72.55,158.69,48.16,55c-.66-2.81-1.78-3.5-4.47-3.46-10.23.15-20.46.08-30.69.06-7.63,0-13-4.78-13-11.48S5.31,28.63,13,28.6q20.76-.09,41.54,0c7.6,0,11.38,3,13.3,10.51C70.89,51.05,74,63,76.93,75c.6,2.46,1.71,3.38,4.21,3.7,8,1,16,2.29,24,3.61,6.4,1.07,10.5,6.37,9.88,12.44a11.31,11.31,0,0,1-12.54,10.16c-5-.42-9.88-1.3-14.81-2-4.16-.63-4.18-.66-3.21,3.55q15.12,65.34,30.25,130.69c1.43,6.18,2.91,12.36,4.22,18.58.48,2.27,1.33,3.24,3.91,3.24q94.68-.12,189.37-.07c4.12,0,5-.92,5.1-5.08q1.11-55.58,2.23-111.13c.08-3.38-.82-5.17-4.36-6.12a11,11,0,0,1-7.88-13c1.21-6,6.39-9.63,12.71-9,12.41,1.2,22.56,12.83,22.51,26.23-.06,13-.45,25.94-.7,38.92q-.74,37.23-1.46,74.46c-.3,16.58-11.27,27.6-27.88,27.62q-67.92.08-135.85,0c-19.59,0-39.18,0-58.76-.05a8.82,8.82,0,0,0-5.8,2c-9.84,7.66-19.78,15.19-29.63,22.85-1.84,1.44-4.86,2.46-3.83,5.7s4.06,2.3,6.41,2.3q122.76,0,245.52,0c6.48,0,10.75,2.52,12.63,7.4,2.95,7.64-2.62,15.41-11.37,15.59-8,.17-16,.11-23.95,0-2.4,0-2.9.47-2.3,3,3.5,14.72-2,28.86-14.13,37a34.78,34.78,0,0,1-39.07-.26c-12.1-8.43-17.28-22.5-13.7-37.19C238.85,339.22,239,338.52,239.26,337.45Zm-94.77,0A11.38,11.38,0,1,0,156,348.79,11.64,11.64,0,0,0,144.49,337.42ZM283.7,348.85a11.36,11.36,0,0,0-11.36-11.43,11.39,11.39,0,1,0-.11,22.75A11.36,11.36,0,0,0,283.7,348.85Z"/><path class="cls-1" d="M179.67,71.67a11.16,11.16,0,0,1,9.18,4.21c2.66,3.14,5.45,6.18,7.91,9.46,1.57,2.08,2.48,1.89,4.15.1,9.67-10.41,19.38-20.79,29.23-31,6.26-6.52,16.7-4.26,19.31,4.07a10.83,10.83,0,0,1-2.31,11.17c-13.45,14.38-26.9,28.77-40.52,43-4.45,4.65-12.93,4.29-17.16-.55q-9.48-10.83-18.54-22a10.64,10.64,0,0,1-1.19-12.26A10.77,10.77,0,0,1,179.67,71.67Z"/></g></g></svg>