<svg xmlns="http://www.w3.org/2000/svg" viewBox="0 0 408.83 283.31"><defs><style>.cls-1{fill:#f07167;}</style></defs><g id="Layer_2" data-name="Layer 2"><g id="Layer_1-2" data-name="Layer 1"><path class="cls-1" d="M0,112.93c3.4-7.5,9.36-9.69,17.33-9.63,34.56.26,69.12.1,103.67.12,7.3,0,12.07,3.12,14,9A12.64,12.64,0,0,1,124.29,129a44.64,44.64,0,0,1-4.77.18c-34.43,0-68.85-.13-103.27.11-7.88.06-13.31-2.59-16.25-10Z"/><path class="cls-1" d="M157,0H260.4C272.6,0,277,4.41,277,16.54c0,9.25,0,9.25,9.33,9.25,14.51,0,29,.13,43.51-.05,6.95-.09,11.51,2.83,14.57,9,10.71,21.53,21.67,42.94,32.36,64.49a103,103,0,0,0,12.48,19.84c5.31,6.47,10.28,13.23,15.48,19.8a18.22,18.22,0,0,1,4.08,11.78c-.06,26.61,0,53.22,0,79.84,0,9.63-5.06,14.68-14.84,14.74-10.51.07-21,.11-31.53,0-2.79,0-4.1.69-5.1,3.51-7.47,21.12-26.75,34.72-48.69,34.62-22.11-.1-41-13.55-48.51-34.86-.94-2.63-2.23-3.28-4.86-3.27q-34.51.15-69,0c-2.89,0-4.05.94-5,3.62a51,51,0,0,1-48.35,34.51c-21.91.14-41.24-13.46-48.74-34.56-1-2.76-2.21-3.62-5.05-3.57-9.44.18-18.89.16-28.34,0-8.08-.11-13.59-4.83-14.06-11.77-.56-8.15,4.92-13.9,13.74-14.06,9.05-.17,18.11-.23,27.14,0,3.71.12,5.4-.83,6.69-4.59a51.27,51.27,0,0,1,97,.26c1.15,3.36,2.59,4.37,6.11,4.34,22.35-.19,44.7-.15,67.06,0,3.07,0,4.56-.67,5.63-3.85a51.32,51.32,0,0,1,97.57.3c.93,2.83,2.19,3.64,5,3.54,5.85-.2,11.71-.13,17.56,0,2.26,0,3-.72,3-3q-.11-30.54,0-61.08a7.14,7.14,0,0,0-1.86-4.65c-4.83-6.18-9.76-12.3-14.41-18.62a7.2,7.2,0,0,0-6.59-3.27c-31,.12-62,.08-93,.08-11.38,0-16-4.59-16-15.94,0-27.68-.06-55.36.08-83,0-3.4-1-4.16-4.26-4.15q-97.2.14-194.39.07a24,24,0,0,1-7.12-.69A12.72,12.72,0,0,1,36.67,11.6,12.41,12.41,0,0,1,47.66.24,47,47,0,0,1,53.23,0ZM313.27,103.08c11,0,22.08-.09,33.12,0,3.15,0,3.2-.81,1.93-3.31Q336.76,77.1,325.43,54.24a4.33,4.33,0,0,0-4.53-2.82q-20.16.18-40.31,0c-2.67,0-3.67.52-3.64,3.45q.23,22.35,0,44.7c0,2.8.81,3.6,3.58,3.57C291.45,103,302.36,103.08,313.27,103.08Zm-4.64,103.14a25.66,25.66,0,1,0,25.87,25.42A25.73,25.73,0,0,0,308.63,206.22ZM158.34,232.36a25.67,25.67,0,1,0-26.45,25.14A25.57,25.57,0,0,0,158.34,232.36Z"/><path class="cls-1" d="M88.61,52.87c18.1,0,36.19,0,54.28,0,7.79,0,13.18,4.74,13.68,11.62a12.66,12.66,0,0,1-12.54,14c-6.24.21-12.5.07-18.75.07q-44.91,0-89.8,0c-7.42,0-12.6-3.75-14-10-1.85-8.22,3.79-15.53,12.47-15.67,12-.19,23.94-.06,35.92-.07Z"/><path class="cls-1" d="M63.48,154.27c10.11,0,20.23-.27,30.33.08a12.49,12.49,0,0,1,11.43,17c-2,5.42-6.17,8.48-11.86,8.52q-29.74.26-59.48,0A12.81,12.81,0,0,1,21.05,166.8c.14-7,5.42-12.37,12.89-12.53,9.84-.21,19.69-.05,29.54-.05Z"/></g></g></svg>