<svg xmlns="http://www.w3.org/2000/svg" viewBox="0 0 448.72 384.62"><defs><style>.cls-1{fill:#f07167;}</style></defs><g id="Layer_2" data-name="Layer 2"><g id="Layer_1-2" data-name="Layer 1"><path class="cls-1" d="M448.72,201.94c-.69,3.4-1.26,6.83-2.08,10.2-6.64,27.1-29.49,40.21-57.92,33.16-4.32-1.07-8.53-2.59-13.3-4.06,1.57,10.16,3.06,19.92,3.47,29.81.91,21.38-1.74,42-12.84,60.78-11.87,20.07-30.13,32.08-51.52,39.95-17.8,6.54-36.32,9.83-55.13,11.33-28,2.24-56,2.22-83.91-1.6-22.27-3-43.87-8.38-63.28-20.26-26.44-16.19-39.48-40.48-42-70.88a171.81,171.81,0,0,1,2.5-44.47c.25-1.4.35-2.83.6-4.87-4.69,1.55-8.8,3.34-13.15,4.31-15.18,3.39-29.62,2.73-42.38-7.44C7.41,229.67,2.7,218.43.92,205.76c-2.94-20.9,1.6-41,7.35-60.81A389.59,389.59,0,0,1,31.86,84.74C44.82,57.8,67.38,43,95.44,35.49a158.44,158.44,0,0,1,44.23-5c1.94,0,3.59,0,5.2-1.53C167.73,7.66,195.4-.28,226,0c29.52.28,56.09,8.5,78,29.09,1.79,1.68,3.68,1.39,5.69,1.37,23.78-.12,46.83,3.28,68.23,14.41,17.68,9.2,31,22.66,39.42,40.79,11.94,25.71,22.5,51.91,28.25,79.8,1.23,6,2.09,12,3.12,18.06Zm-224.49,54.4c6.86,0,13.72,0,20.59,0,14.33.12,23.94,11.19,22,25.44-2.37,17.83-12,30-28.87,36.26-1.49.55-3,.73-3,3q.12,19.71,0,39.43c0,2.37,1.25,2.53,3.07,2.41,4.23-.26,8.47-.36,12.69-.66,19.85-1.43,39.46-4.1,58.22-11.2,23.88-9.05,40.89-24.5,46.6-50.29,3.65-16.51,3.08-33.19-.14-49.6-6-30.63-11.26-61.39-17.19-92-4.93-25.51-10.85-50.77-21.69-74.57-7.9-17.35-18.08-33-33.44-44.8-21.43-16.39-46-20.3-72.12-17.63-27.84,2.86-49.47,16.24-65.5,39-11,15.56-18,32.94-23.58,51-7.35,23.89-12.11,48.37-16.1,73-4.27,26.35-11.08,52.24-14.13,78.78-1.67,14.59-1.23,29.18,3.28,43.36,7.43,23.3,24.64,36.48,46.65,44.46,22.36,8.1,45.73,10.19,69.27,11.26,2.95.13,2.92-1.42,2.91-3.49,0-12.12-.14-24.24.07-36.36.06-3.23-1.1-4.41-4-5.49-14.49-5.37-23.5-15.82-27.17-30.78-5.1-20.79,9.22-31.9,24.05-30.58C212.51,256.77,218.39,256.34,224.23,256.34ZM124.83,52.52a108.22,108.22,0,0,0-24.81,4C78.39,62.69,60.52,73.76,50.61,95c-7.83,16.77-15,33.84-20.46,51.54S20.29,182.24,22,201.1c1.38,15.72,10.74,25.34,24.42,24.73a47.37,47.37,0,0,0,28.46-11,15.77,15.77,0,0,0,5.76-9.94c3.42-19.37,6.77-38.76,10.65-58,5.39-26.77,12.44-53.06,24.6-77.7C118.53,63.72,121.6,58.47,124.83,52.52Zm198.92.27c10,16,17,32.58,22.46,49.83,10,31.49,15.7,64,20.74,96.49,1.79,11.53,7.72,17.95,17.48,22.32a52.33,52.33,0,0,0,12.92,3.95c15.14,2.49,25.78-4.81,28.67-19.76,2.34-12.12,1-24.14-1.44-36.05-5-24.56-14.95-47.39-24.37-70.48C386.38,65.19,350.51,53.74,323.75,52.79Zm-99.37,225c-6.12,0-12.24.07-18.35,0-2.37,0-2.95.87-2.77,3.13.78,9.51,10.54,18.11,20.89,18.23s20.52-8.52,21.33-18.22c.19-2.24-.36-3.18-2.75-3.14C236.62,277.88,230.5,277.8,224.38,277.8Z"/><path class="cls-1" d="M171.11,128.25c16.74.05,30.11,12.48,31.73,29.5.67,7.07-3,12.23-9.31,13s-11.06-3.53-12-10.54c-1-8.15-7.48-12.64-14.4-9.88-4.33,1.72-6.56,5.06-6.86,9.76-.32,5-2.63,8.67-7.49,10.24-7.47,2.4-14.2-3.31-13.82-11.57A31.87,31.87,0,0,1,171.11,128.25Z"/><path class="cls-1" d="M278,128.25a31.79,31.79,0,0,1,31.71,30c.46,7.06-3.46,12.11-9.79,12.57-6.08.45-10.66-3.8-11.47-10.64-1-8.17-7.95-12.79-14.85-9.69-4.06,1.83-6.14,5.12-6.43,9.64-.31,4.94-2.64,8.67-7.52,10.22-7.3,2.32-14.1-3.23-13.86-11.17A32,32,0,0,1,278,128.25Z"/></g></g></svg>