<svg xmlns="http://www.w3.org/2000/svg" viewBox="0 0 933.38 857.91"><defs><style>.cls-1{fill:#680d14;}.cls-2{fill:#f06549;}.cls-3{fill:#219c97;}.cls-4{fill:#fff;}.cls-5{fill:#ec1e49;}</style></defs><g id="Layer_2" data-name="Layer 2"><g id="Layer_1-2" data-name="Layer 1"><path class="cls-1" d="M444.08,527.81a81.56,81.56,0,0,0-57.45-65.59A536.33,536.33,0,0,0,74,464.71a81.43,81.43,0,0,0-53.9,54.63A492.3,492.3,0,0,0,12.4,768.43a106.91,106.91,0,0,0,26.85,50,47,47,0,0,1,4.85-22.25c37.61-76.46,111-105.52,171.22-108.09a47.78,47.78,0,0,1,33.22,11.55c34.74,29.87,68.29,87.91,65.77,156.68q21.79-1.83,42-4.44a106.41,106.41,0,0,0,92-93,844.31,844.31,0,0,0,6-103.58A843.45,843.45,0,0,0,444.08,527.81Zm-318,105.71C118.73,659,99,675.58,82,670.65s-24.71-29.54-17.32-55,27.12-42,44.08-37.13S133.51,608.09,126.12,633.52Zm119-49c-9.66,33.24-35.46,55-57.62,48.53s-32.3-38.61-22.64-71.85,35.46-55,57.62-48.53S254.81,551.3,245.15,584.54Zm44,78.07C267,656.17,256.9,624,266.56,590.76s35.45-55,57.62-48.53,32.29,38.61,22.63,71.85S311.36,669.05,289.2,662.61Zm102.28,63.52c-7.39,25.43-27.12,42-44.08,37.13s-24.71-29.54-17.32-55,27.13-42.06,44.08-37.13S398.87,700.69,391.48,726.13Z"/><path class="cls-2" d="M780.14,93.28c-6.66-21-29.91-36.68-53.17-39.23-17.72-1.94-43.56,2.83-54.4,20.46-6.38,10.37-4.75,19.08.88,67,6.58,56,6.4,63.92.92,72.25-9.1,13.83-20.49,10-55.77,27.35-30.84,15.17-53.23,26.18-57.67,44.74-6.31,26.36,23.72,67.21,56.91,71.32,41.7,5.16,59.11-51.65,114.46-61.43,39-6.89,76.1,13.26,103.62,34.17l67.16,44.92a106,106,0,0,1-67.69,36.95,959.79,959.79,0,0,1-121.47,7.78,959,959,0,0,1-133.47-9.28,106.54,106.54,0,0,1-89-82A492,492,0,0,1,499.2,79.17a81.42,81.42,0,0,1,53.89-54.63,536.33,536.33,0,0,1,312.6-2.49,81.53,81.53,0,0,1,57.45,65.59,843.37,843.37,0,0,1,10.23,127.5c.1,23.78-.82,46.45-2.46,67.89-22.61-9.15-42.53-16.08-59.4-21.41-35.57-11.27-74.65-20.86-90.9-53.91-8.45-17.17-9.16-37.51-9.36-43.25C769.9,126.19,787.23,115.64,780.14,93.28Z"/><path class="cls-3" d="M265,267.86c-22.09-18.9-57.34-12.78-79-2.05s-48.7,35.47-43.24,53c6.36,20.48,54.87,24.51,88.89,14.69,7.62-2.2,46.17-13.33,48.37-36.78C281.36,281.9,267.47,270,265,267.86ZM245,297a14.31,14.31,0,1,1,14.3-14.31A14.31,14.31,0,0,1,245,297Z"/><path class="cls-3" d="M454.29,215.14a844.31,844.31,0,0,1-6,103.58,106.42,106.42,0,0,1-92,93,960,960,0,0,1-121.47,7.78q-13.65,0-26.86-.37,4.88-.62,10-1.39s14.64-2.24,27.51-5.08c35.57-7.84,93-20.51,127.21-64.51,4-5.11,39-49.95,24.26-76.46-11.45-20.56-40.87-8.57-68.42-38.21-17.32-18.64-28.83-42.83-28.83-42.83A122.25,122.25,0,0,0,280,160.12a63.87,63.87,0,0,0-12.26-10.49c-16.58-11.18-36-16.79-56.18-18.34,9.66-16.58,20.2-23.83,29.94-26.58,36.84-10.41,69.64,41.52,102.48,27.68,18.7-7.87,30.24-34,24.52-51.07-9.79-29.09-72.91-39.93-117.43-20C225.12,73,196.37,99.13,191.09,131c-34.23,1.62-68.91,13.12-94.83,27.47-17.19,9.51-59.9,34-81.29,85.72A176.41,176.41,0,0,0,4.18,282.48,492.09,492.09,0,0,1,20.12,79.17,81.43,81.43,0,0,1,74,24.54a536.33,536.33,0,0,1,312.6-2.49,81.56,81.56,0,0,1,57.45,65.59A843.45,843.45,0,0,1,454.29,215.14Z"/><path class="cls-4" d="M265,267.86c-22.09-18.9-57.34-12.78-79-2.05s-48.7,35.47-43.24,53c6.36,20.48,54.87,24.51,88.89,14.69,7.62-2.2,46.17-13.33,48.37-36.78C281.36,281.9,267.47,270,265,267.86ZM245,297a14.31,14.31,0,1,1,14.3-14.31A14.31,14.31,0,0,1,245,297Z"/><path class="cls-3" d="M265,267.86c-22.09-18.9-57.34-12.78-79-2.05s-48.7,35.47-43.24,53c6.36,20.48,54.87,24.51,88.89,14.69,7.62-2.2,46.17-13.33,48.37-36.78C281.36,281.9,267.47,270,265,267.86ZM245,297a14.31,14.31,0,1,1,14.3-14.31A14.31,14.31,0,0,1,245,297Z"/><path class="cls-5" d="M912.52,747.73c-1.43-20.85-41.48-33-83.88-45.86-40.58-12.31-72.72-22.06-82-9.42-11.1,15.17,17.68,53.13,31.12,70.86,16.83,22.19,28.79,38,49.28,41,21.35,3.2,39.37-9.3,53-18.76C895,775.21,913.53,762.39,912.52,747.73Zm-17.26,5.86c-2.25,5.73-13.08,6.84-24.18,2.48s-18.29-12.54-16-18.27,13.08-6.84,24.18-2.48S897.51,747.86,895.26,753.59Z"/><path class="cls-5" d="M810.71,561.43l-86.52-67.31q-12.53,56.13-25,112.26c-7.91,5.19-66.38,44.93-71.82,115-4,51.88,22.35,103.71,68.21,136.54a958.66,958.66,0,0,1-111.8-9,106.56,106.56,0,0,1-89-82,492,492,0,0,1,7.73-249.09,81.42,81.42,0,0,1,53.89-54.63A536.33,536.33,0,0,1,869,460.67a81.53,81.53,0,0,1,57.45,65.59q2,12.54,3.66,25.89a305.66,305.66,0,0,0-36.4-2.15A309.23,309.23,0,0,0,810.71,561.43Z"/><path class="cls-4" d="M912.52,747.73c-1.43-20.85-41.48-33-83.88-45.86-40.58-12.31-72.72-22.06-82-9.42-11.1,15.17,17.68,53.13,31.12,70.86,16.83,22.19,28.79,38,49.28,41,21.35,3.2,39.37-9.3,53-18.76C895,775.21,913.53,762.39,912.52,747.73Zm-17.26,5.86c-2.25,5.73-13.08,6.84-24.18,2.48s-18.29-12.54-16-18.27,13.08-6.84,24.18-2.48S897.51,747.86,895.26,753.59Z"/><path class="cls-5" d="M912.52,747.73c-1.43-20.85-41.48-33-83.88-45.86-40.58-12.31-72.72-22.06-82-9.42-11.1,15.17,17.68,53.13,31.12,70.86,16.83,22.19,28.79,38,49.28,41,21.35,3.2,39.37-9.3,53-18.76C895,775.21,913.53,762.39,912.52,747.73Zm-17.26,5.86c-2.25,5.73-13.08,6.84-24.18,2.48s-18.29-12.54-16-18.27,13.08-6.84,24.18-2.48S897.51,747.86,895.26,753.59Z"/></g></g></svg>